# xmcd
#
# Track frame offsets:
#	150
#	20137
#	34798
#	56536
#	79401
#	102219
#	120951
#	148359
#	172826
#	190559
#	206437
#	229820
#	250315
#
# Disc length: 3577 seconds
#
# Revision: 0
# Processed by: cddbd v1.5.2PL0 Copyright (c) Steve Scherf et al.
# Submitted via: EasyCDDAExtractor 16.1.0.1
#
DISCID=ac0df70d
DTITLE=Samay-Spirit's - Vol. 3
DYEAR=1900
DGENRE=
TTITLE0=Cosoquillitas De Amor
TTITLE1=Michael
TTITLE2=Llorando Se Fue
TTITLE3=Ponchito Azul
TTITLE4=Angustias
TTITLE5=Ananau
TTITLE6=Jina Jina
TTITLE7=Churay Churay
TTITLE8=Flor Aymara
TTITLE9=Llaqui Shungulla
TTITLE10=Juyani
TTITLE11=Hay Wambrita
TTITLE12=Duena De Casa
EXTD=
EXTT0=
EXTT1=
EXTT2=
EXTT3=
EXTT4=
EXTT5=
EXTT6=
EXTT7=
EXTT8=
EXTT9=
EXTT10=
EXTT11=
EXTT12=
PLAYORDER=
